<svg width="53" height="48" viewBox="0 0 53 48" fill="none" xmlns="http://www.w3.org/2000/svg">
<path d="M4.75 47.5C3.44375 47.5 2.32552 47.0349 1.39531 46.1047C0.465104 45.1745 0 44.0563 0 42.75V14.25C0 12.9437 0.465104 11.8255 1.39531 10.8953C2.32552 9.9651 3.44375 9.5 4.75 9.5H12.2312L16.625 4.75H30.875V9.5H18.7031L14.3687 14.25H4.75V42.75H42.75V21.375H47.5V42.75C47.5 44.0563 47.0349 45.1745 46.1047 46.1047C45.1745 47.0349 44.0562 47.5 42.75 47.5H4.75ZM42.75 14.25V9.5H38V4.75H42.75V0H47.5V4.75H52.25V9.5H47.5V14.25H42.75ZM23.75 39.1875C26.7187 39.1875 29.2422 38.1484 31.3203 36.0703C33.3984 33.9922 34.4375 31.4688 34.4375 28.5C34.4375 25.5312 33.3984 23.0078 31.3203 20.9297C29.2422 18.8516 26.7187 17.8125 23.75 17.8125C20.7812 17.8125 18.2578 18.8516 16.1797 20.9297C14.1016 23.0078 13.0625 25.5312 13.0625 28.5C13.0625 31.4688 14.1016 33.9922 16.1797 36.0703C18.2578 38.1484 20.7812 39.1875 23.75 39.1875ZM23.75 34.4375C22.0875 34.4375 20.6823 33.8635 19.5344 32.7156C18.3865 31.5677 17.8125 30.1625 17.8125 28.5C17.8125 26.8375 18.3865 25.4323 19.5344 24.2844C20.6823 23.1365 22.0875 22.5625 23.75 22.5625C25.4125 22.5625 26.8177 23.1365 27.9656 24.2844C29.1135 25.4323 29.6875 26.8375 29.6875 28.5C29.6875 30.1625 29.1135 31.5677 27.9656 32.7156C26.8177 33.8635 25.4125 34.4375 23.75 34.4375Z" fill="white"/>
</svg>
