<svg width="37" height="37" viewBox="0 0 37 37" fill="none" xmlns="http://www.w3.org/2000/svg">
<mask id="mask0_54_420" style="mask-type:alpha" maskUnits="userSpaceOnUse" x="0" y="0" width="37" height="37">
<rect width="37" height="37" fill="#D9D9D9"/>
</mask>
<g mask="url(#mask0_54_420)">
<path d="M0 23.125V20.0417H6.16667V23.125H0ZM8.24792 15.0313L3.85417 10.676L6.05104 8.51771L10.4063 12.8729L8.24792 15.0313ZM7.70833 31.2188C7.16875 31.2188 6.71267 31.0325 6.3401 30.6599C5.96754 30.2873 5.78125 29.8313 5.78125 29.2917C5.78125 28.7521 5.96754 28.296 6.3401 27.9234C6.71267 27.5509 7.16875 27.3646 7.70833 27.3646C8.24792 27.3646 8.70399 27.5509 9.07656 27.9234C9.44913 28.296 9.63542 28.7521 9.63542 29.2917C9.63542 29.8313 9.44913 30.2873 9.07656 30.6599C8.70399 31.0325 8.24792 31.2188 7.70833 31.2188ZM9.25 23.125V21.5833C9.25 19.4507 10.0016 17.6328 11.5047 16.1297C13.0078 14.6266 14.8257 13.875 16.9583 13.875C19.091 13.875 20.9089 14.6266 22.412 16.1297C23.9151 17.6328 24.6667 19.4507 24.6667 21.5833V23.125H21.5833V21.5833C21.5833 20.2986 21.1337 19.2066 20.2344 18.3073C19.3351 17.408 18.2431 16.9583 16.9583 16.9583C15.6736 16.9583 14.5816 17.408 13.6823 18.3073C12.783 19.2066 12.3333 20.2986 12.3333 21.5833V23.125H9.25ZM12.3333 37.3854C11.7938 37.3854 11.3377 37.1991 10.9651 36.8266C10.5925 36.454 10.4063 35.9979 10.4063 35.4583C10.4063 34.9188 10.5925 34.4627 10.9651 34.0901C11.3377 33.7175 11.7938 33.5313 12.3333 33.5313C12.8729 33.5313 13.329 33.7175 13.7016 34.0901C14.0741 34.4627 14.2604 34.9188 14.2604 35.4583C14.2604 35.9979 14.0741 36.454 13.7016 36.8266C13.329 37.1991 12.8729 37.3854 12.3333 37.3854ZM16.9583 31.2188C16.4188 31.2188 15.9627 31.0325 15.5901 30.6599C15.2175 30.2873 15.0313 29.8313 15.0313 29.2917C15.0313 28.7521 15.2175 28.296 15.5901 27.9234C15.9627 27.5509 16.4188 27.3646 16.9583 27.3646C17.4979 27.3646 17.954 27.5509 18.3266 27.9234C18.6991 28.296 18.8854 28.7521 18.8854 29.2917C18.8854 29.8313 18.6991 30.2873 18.3266 30.6599C17.954 31.0325 17.4979 31.2188 16.9583 31.2188ZM15.4167 10.7917V4.625H18.5V10.7917H15.4167ZM21.5833 37.3854C21.0438 37.3854 20.5877 37.1991 20.2151 36.8266C19.8425 36.454 19.6563 35.9979 19.6563 35.4583C19.6563 34.9188 19.8425 34.4627 20.2151 34.0901C20.5877 33.7175 21.0438 33.5313 21.5833 33.5313C22.1229 33.5313 22.579 33.7175 22.9516 34.0901C23.3241 34.4627 23.5104 34.9188 23.5104 35.4583C23.5104 35.9979 23.3241 36.454 22.9516 36.8266C22.579 37.1991 22.1229 37.3854 21.5833 37.3854ZM25.6688 15.0313L23.4719 12.8729L27.8656 8.51771L30.024 10.676L25.6688 15.0313ZM26.2083 31.2188C25.6688 31.2188 25.2127 31.0325 24.8401 30.6599C24.4675 30.2873 24.2813 29.8313 24.2813 29.2917C24.2813 28.7521 24.4675 28.296 24.8401 27.9234C25.2127 27.5509 25.6688 27.3646 26.2083 27.3646C26.7479 27.3646 27.204 27.5509 27.5766 27.9234C27.9491 28.296 28.1354 28.7521 28.1354 29.2917C28.1354 29.8313 27.9491 30.2873 27.5766 30.6599C27.204 31.0325 26.7479 31.2188 26.2083 31.2188ZM27.75 23.125V20.0417H33.9167V23.125H27.75Z" fill="white"/>
</g>
</svg>
