<svg width="128" height="33" viewBox="0 0 128 33" fill="none" xmlns="http://www.w3.org/2000/svg">
<g clip-path="url(#clip0_43_2)">
<path d="M63.5843 17.292V20.9998H59.4285C68.3718 30.9916 52.6461 33.9587 44.8622 32.7447C38.4996 31.7529 32.7022 26.4607 39.0648 20.9998H34.4934V17.292H63.5843ZM46.4456 21.9257C44.8913 22.148 42.2316 23.0492 41.7287 24.6871C39.7256 31.2508 60.2472 30.5718 56.4695 24.1315C54.9859 21.6006 49.0056 21.5636 46.4456 21.9299V21.9257Z" fill="#1C4592"/>
<path d="M123.013 11.9426L118.284 11.9179C115.848 20.4652 99.1791 19.3747 98.8716 10.5063C98.5475 1.12774 115.183 -0.374313 118.304 8.25532L123.013 8.23886V2.47754L128 2.88906V17.7039H123.013V11.9426ZM112.066 7.14009C108.114 3.23063 101.369 8.78618 105.126 12.9837C109.016 17.3253 116.509 11.5393 112.066 7.14009Z" fill="#1C4592"/>
<path d="M46.5455 2.88889L46.7865 0H51.9522V2.88889H63.173V6.59259L59.8483 6.18518C60.5424 8.55144 61.8681 9.72428 60.2639 12.1523C56.5943 17.6996 41.9117 17.7901 38.3086 12.0823C36.5631 9.32099 38.0593 8.86008 38.6494 6.18518H35.3247V2.88889H46.5455ZM55.1564 7.93827C52.7211 5.59259 42.5476 5.47737 42.8135 10.0535C43.0504 14.1605 56.025 14.107 55.9252 9.67901C55.9169 9.34568 55.3933 8.17284 55.1564 7.94239V7.93827Z" fill="#1C4592"/>
<path d="M103.065 19.761H108.052L108.675 22.2301H123.013V19.7568H128V30.8679H103.688L103.065 30.2507V19.7568V19.761ZM123.013 25.5223H108.675C107.894 25.5223 107.894 27.5799 108.675 27.5799H123.013V25.5223Z" fill="#1C4592"/>
<path d="M20.7792 2.88867V6.59238H13.2987C13.9803 11.1068 15.5096 15.4607 20.3636 16.8846C20.6255 17.222 18.7803 19.7446 18.0987 19.7611C16.2494 19.8064 11.1668 15.2426 10.801 13.1767C9.95325 13.6953 9.72883 14.8516 8.93091 15.6376C7.9626 16.5924 3.46182 19.7693 2.27325 19.7488C1.28416 19.7323 -0.0207783 17.8599 9.25211e-07 16.8846C4.66701 15.6294 7.62597 11.2302 7.8961 6.59238H0.415585V2.88867H20.7792Z" fill="#1C4592"/>
<path d="M82.9091 2.88937C83.254 2.93875 83.815 3.33793 84.2472 3.412C86.3584 5.30912 82.5766 14.7001 81.3963 17.0293C79.2685 21.2268 75.9356 25.3256 72 27.9346L67.7444 25.5313C74.3065 21.3955 78.3875 14.1034 79.7922 6.59307H68.5714V2.88937C72.9932 3.35027 78.6452 2.26797 82.9091 2.88937Z" fill="#1C4592"/>
<path d="M93.9221 2.47754H88.9351V31.2841H93.9221V2.47754Z" fill="#1C4592"/>
<path d="M8.7273 21.8193V27.9922H28.6754V31.2844H4.36367C4.26808 31.2844 3.32471 30.0004 3.32471 29.844V21.8193H8.7273Z" fill="#1C4592"/>
<path d="M28.6753 2.47754V22.6421C26.9506 22.4035 24.5943 23.2594 23.2727 22.0249V2.47754H28.6753Z" fill="#1C4592"/>
</g>
<defs>
<clipPath id="clip0_43_2">
<rect width="128" height="33" fill="white"/>
</clipPath>
</defs>
</svg>
