<svg width="175" height="44" viewBox="0 0 175 44" fill="none" xmlns="http://www.w3.org/2000/svg">
<g clip-path="url(#clip0_15_251)">
<path d="M146.828 11.1824C146.828 11.5731 146.887 11.9786 147.042 12.3545C147.727 14.0573 149.475 15.104 151.695 14.2121C152.226 13.9983 166.924 8.07907 166.924 8.07907C166.924 8.07907 161.135 22.7482 160.914 23.2937C160.073 25.4019 161.083 27.2964 162.802 27.9377C163.185 28.0777 163.584 28.1441 163.974 28.1441C165.383 28.1441 166.622 27.3111 167.234 25.6525C167.323 25.4019 174.565 5.53594 174.727 5.05679C174.823 4.77668 174.985 4.10588 174.993 3.64885C174.993 2.66108 174.631 1.73965 173.931 1.03937C173.237 0.353828 172.323 0 171.349 0C170.877 0 170.494 0.0810856 169.911 0.272743C169.565 0.383314 150.906 7.32719 149.306 7.9169C147.705 8.51399 146.828 9.78187 146.828 11.1898" fill="#ED1C24"/>
<path d="M86.3828 37.2773V34.9995C88.8165 34.3656 90.5939 32.449 90.5939 30.1786C90.5939 28.7412 89.8785 27.4512 88.7428 26.5297H91.2281V23.935H86.486V21.4213H82.7912V23.935H77.9385V26.5297H80.5345C79.3987 27.4512 78.6834 28.7412 78.6834 30.1786C78.6834 32.3826 80.3648 34.2476 82.6953 34.9332V37.2699H77.1567V39.9383H89.7826C90.8668 39.9383 92.0615 39.7762 92.0689 39.7688V37.1667C92.0689 37.1667 91.1839 37.2699 90.085 37.2699H86.3902L86.3828 37.2773ZM84.6349 27.348C85.9919 27.348 87.0908 28.5864 87.0908 30.1122C87.0908 31.6381 85.9845 32.8765 84.6349 32.8765C83.2853 32.8765 82.1791 31.6381 82.1791 30.1122C82.1791 28.5864 83.2853 27.348 84.6349 27.348Z" fill="#454B52"/>
<path d="M96.6118 22.0111H92.917V43.9926H96.6118V31.358H100.248V28.6969H96.6118V22.0111Z" fill="#454B52"/>
<path d="M141.385 33.7242C142.469 33.7242 143.656 33.5621 143.671 33.5621V30.96C143.671 30.96 142.786 31.0632 141.68 31.0632H135.95C135.094 31.0484 134.666 30.6725 134.652 29.9132V25.3651H141.901V22.6966H130.913V30.5766C130.913 32.5448 132.668 33.7242 134.357 33.7242H141.378H141.385Z" fill="#454B52"/>
<path d="M48.5346 38.8326H39.1315V36.1347C42.1995 35.4639 44.4784 33.164 44.4784 30.4366C44.4784 28.9697 43.822 27.6281 42.7379 26.5961H46.6614V23.9276H39.1389V21.4066H35.4441V23.9276H27.9216V26.5961H31.8451C30.761 27.6281 30.1046 28.9697 30.1046 30.4366C30.1046 33.164 32.3761 35.4639 35.4441 36.1347V38.8326H26.041V41.5011H48.5346V38.8326ZM33.9027 30.3555C33.9027 28.5348 35.4219 27.0531 37.2878 27.0531C39.1537 27.0531 40.6729 28.5348 40.6729 30.3555C40.6729 32.1762 39.1537 33.6579 37.2878 33.6579C35.4219 33.6579 33.9027 32.1762 33.9027 30.3555Z" fill="#454B52"/>
<path d="M6.96954 43.9779H18.4081V35.6187C18.4081 35.1617 18.0393 34.7931 17.5895 34.7931H3.51807V40.8303C3.51807 42.651 4.97093 43.9705 6.96216 43.9705M7.21291 37.4689H14.7132V41.3168H8.5109C7.61116 41.3168 7.22766 40.963 7.21291 40.1816V37.4689Z" fill="#454B52"/>
<path d="M22.4936 30.0459H17.8916C18.1129 29.2129 18.6586 26.6329 18.6586 22.1216V21.9963H3.31872V24.6648H14.7868C14.7868 24.8417 14.7868 25.0628 14.7868 25.2766C14.7868 27.7608 14.6614 29.3898 14.595 30.0459H0V32.7144H22.4936V30.0459Z" fill="#454B52"/>
<path d="M58.0482 40.1816V36.6286H54.3091V40.845C54.3091 42.8132 56.0643 43.9926 57.7532 43.9926H69.6268V41.3315H59.3462C58.4907 41.3168 58.0629 40.9409 58.0482 40.1816Z" fill="#454B52"/>
<path d="M51.042 35.0511H60.8875V39.1865H64.5824V35.0511H73.5356V32.3826H51.042V35.0511Z" fill="#454B52"/>
<path d="M58.1146 30.7757H69.5531V22.0184H54.6631V27.6355C54.6631 29.4562 56.1159 30.7757 58.1146 30.7757ZM58.3653 24.6795H65.8656V28.1072H59.6633C58.7636 28.1072 58.3801 27.7534 58.3653 26.972V24.6795Z" fill="#454B52"/>
<path d="M137.889 40.1963V35.685H134.194V40.8598C134.194 42.6805 135.647 44 137.646 44H149.025V41.3389H139.187C138.287 41.3389 137.904 40.9851 137.889 40.1963Z" fill="#454B52"/>
<path d="M148.974 21.9963H145.353V36.002H148.974V29.1761H152.602V26.5076H148.974V21.9963Z" fill="#454B52"/>
<path d="M121.259 28.6601H119.828V22.0111H116.406V43.9926H119.828V31.3875H121.259V43.9926H124.681V22.0111H121.259V28.6601Z" fill="#454B52"/>
<path d="M111.185 25.4314H115.027V22.7629H104.149V25.4314H107.814L103.736 37.4394H107.246L109.466 30.6577C111.723 33.0977 112.261 37.4394 112.261 37.4394H115.396C115.396 37.4394 115.233 31.7266 110.646 27.0457L111.177 25.424L111.185 25.4314Z" fill="#454B52"/>
</g>
<defs>
<clipPath id="clip0_15_251">
<rect width="175" height="44" fill="white"/>
</clipPath>
</defs>
</svg>
